<svg xmlns="http://www.w3.org/2000/svg" xmlns:xlink="http://www.w3.org/1999/xlink"><symbol id="glogo" viewBox="0 0 1704.1 300"><g fill="#b2c9d9" fill-rule="evenodd"><path d="M110.46 71.54h-35.1l.2-37.48L23.6 41.8v28.95L0 74.32v23h24.4l-.2 100.94c.17 3.63 6 36.4 41.44 34.3 40.2-2.35 43.63-6.93 47.2-9.3-.28.3 0-19.64 0-19.64l-21.8.6s-12.3-.8-14.3-14.48c-.07 0-.4-92.02-.4-92.02l34.12.2V71.54zM185.97 0L115.8 10.06l.1 13.4 18.66 8.32.2 175.2-17.66 6.95.2 14.38 86.07.1v-14.27l-17.35-7.54.1-103.63s9.8-4.36 23.4-4.36c13.58 0 19.83 8.74 19.83 14.1v94.2l-15.87 7.03v14.48h85.87v-13.88l-17.65-8.62V99.7s.4-33.7-38.67-32.03c-23.77.15-40.6 7.64-57.16 20.73 0-.05 0-88.3.1-88.4zM396.6 133.8l-43.62 1.96s-.3-22.28 4.15-36.43c3.55-11.3 10.72-15.02 18.98-15.03 13.8-.02 17.23 7.7 18.78 17.2 2.23 13.64 1.86 32.15 1.7 32.3zm51.03 20.33h-94.5s-.57 45.88 48.23 46.2c20.6.15 40.24-5.74 40.24-5.74v14.78s-15.14 22.02-56.93 23.42c-52.9-.8-81.05-21.1-84.98-75.72-.43-33.8 8.2-86.1 76.55-89.33 69.76-3.3 73.37 51.8 71.38 86.38z"/></g><g fill="#00417b"><path d="M559.74 113.48v14.98s2.58 26.97-17.85 27.07c-20.44.1-19.84-15.67-19.84-27.07V110.8s-1.2-25.58 18.14-25.67c19.34-.1 19.44 19.93 19.54 28.35zm63.06-47l-43.53 8.04s-22.6-8.23-38.67-8.23c-10.8 0-66.54 4.27-68.57 53.2-1.43 34.54 27.72 47.43 27.52 47.43-.2 0-27.76 17.05-27.96 38.27-.2 21.22 24.98 27.17 24.98 27.17.05-.52-38.08 5.8-38.08 31.73 0 24 39.66 35.7 81.7 35.9 42.05.2 88.25-11.7 88.25-61.48s-48.4-44.02-48.4-44.02H517.8s-9.33-1-9.72-10.52c-.4-9.5 6.34-11.9 6.34-11.9s13.3 3.97 27.17 3.97c13.87 0 68.4-5.75 68.4-52.95 0-21.44-16.85-33.7-16.85-33.7l30.16 8.07-.5-31zm-114.52 175.5s-7.04 4.67-7.04 15.98c0 11.3 10.3 23 39.06 23s42.74-10 42.74-26.77c0-10.92-12.4-12.3-12.4-12.3l-62.36.1zM698.46 67.38l-70.2 10.9v13.7l18.04 8.7v88.26s.94 43.34 43.43 43.83c34.5.4 51.76-23.6 51.76-23.6v23.2l68-8.13v-12.5l-17.37-10.03V67.78l-69.88 10.9v13.1l18.45 9.32v94.2s-4.76 3.95-20.03 5.14c-15.27 1.2-22.2-13.28-22.2-13.28V67.38zM823.86 78.7S857.38 66.5 885 66.5c27.63 0 67.6 9.4 67.6 43.74v95.22l17.1 8.97v11.36s-12.2 6.58-30.15 6.58-33.5-9.1-33.5-22.86c-3.9.07-5.33 22.58-47.4 22.58-49.1 0-45.3-43.47-45.3-44.3 0-.85-1.4-32.46 34.35-39.28 35.34-6.73 51.75-9.4 51.75-9.4l-.18-31.96s-2.9-19.35-19.6-19.2c-16.68.13-16.54.27-16.54.27l-11.78 32.1h-27.63l.14-41.64zm76.92 119.82v-43.2s-35.2-3.15-35.27 25.04c-.04 21.22 13.3 23.7 19.36 23.7 6.94-.45 11.55-2.9 15.92-5.54zM1041.5 65.93l-68.57 10.8v14.3l17.66 8.4V205.6l-16.4 8.4v13.47h90.3v-12.9l-21.6-8.7.14-87.63s13.74-5.47 27.63-5.47c13.88 0 20.75 1.54 20.75 1.54V68.46s-29.4-9.2-50.2 31.84l.28-34.37zM1177.38 13.62v13.9l17.25 8.26v37.58s-12.06-5.75-26.65-5.75c-14.58 0-74.18 2.26-75.86 84.15-1.68 81.9 61.98 80.77 61.42 80.77-.56 0 29.17.84 42.63-16.55-.07 0-.14 16.48-.14 16.48l67.38-8.2v-13.32l-16.2-8.28-.13-199.96-69.7 10.92zm17.18 81.2v106.43s-5.56 2.8-15.92 2.8c-16.84 0-31.1-11.46-31-48.37.1-32.26 4.8-57.6 18.9-64.23 14.1-6.63 27.36 2.48 28.02 3.37z" fill-rule="evenodd"/><path d="M1340.2 28.8c0 15.82-12.84 28.66-28.66 28.66s-28.65-12.84-28.65-28.66c0-15.8 12.82-28.65 28.64-28.65S1340.2 13 1340.2 28.8zm-1.2 37.78l-71.2 10.12v13.68l18.65 9.12v106.3l-17.05 7.73V228h85.67v-13.87l-16.26-7.93.2-139.62z"/><path d="M1371.5 78.5s33.52-12.2 61.15-12.2c27.62 0 67.6 9.4 67.6 43.77v95.2l17.1 8.98v11.36s-12.2 6.6-30.15 6.6-33.52-9.1-33.52-22.85c-3.9.07-5.32 22.57-47.4 22.57-49.08 0-45.3-43.47-45.3-44.3 0-.85-1.4-32.46 34.37-39.27 35.33-6.73 51.74-9.4 51.74-9.4l-.18-31.97s-2.9-19.35-19.6-19.2c-16.7.13-16.55.27-16.55.27l-11.78 32.1h-27.63l.14-41.64zm76.92 119.84v-43.2s-35.2-3.15-35.26 25.04c-.06 21.22 13.28 23.7 19.35 23.7 6.95-.45 11.56-2.9 15.92-5.54zM1589.87 66.2l-70 11.1v13.28l18.84 8.92v107.1l-17.24 6.93v14.88h85.67v-14.67l-15.87-7.53V102.68s8.53-3.97 21.02-3.97c12.5 0 22.2 5.56 22.2 17.86v89.64l-17.56 8.63-.08 13.18h87.26v-14.07l-17.05-7.14v-99.36s1.2-39.67-39.07-39.67c-40.26 0-57.9 21.22-57.9 21.22l-.2-22.8z" fill-rule="evenodd"/></g></symbol><defs><pattern id="gpattern" patternUnits="userSpaceOnUse" x="0" y="0" width="1704.1" height="300" patternTransform="rotate(-35) scale(.2)"><use xlink:href="#glogo" x="0" y="0" width="1704.1" height="300" /></pattern><filter id="ggray" filterUnits="objectBoundingBox" x="0" y="0" width="100%" height="100%"><feColorMatrix type="saturate" in="SourceGraphic" values="0"/></filter></defs><rect x="0" y="0" width="100%" height="100%" style="fill: url(#gpattern); filter: url(#ggray); opacity: .15"></rect></svg>
